<?xml version="1.0" encoding="iso-8859-1"?>
<!-- Generator: Adobe Illustrator 24.2.1, SVG Export Plug-In . SVG Version: 6.00 Build 0)  -->
<svg version="1.1" id="Layer_1" xmlns="http://www.w3.org/2000/svg" xmlns:xlink="http://www.w3.org/1999/xlink" x="0px" y="0px"
	 width="333.681px" height="138.549px" viewBox="0 0 333.681 138.549" enable-background="new 0 0 333.681 138.549"
	 xml:space="preserve">
<circle fill="#50BCEC" cx="69.274" cy="69.274" r="52.653"/>
<g>
	<path fill="#FFFFFF" d="M85.34,71.399v-5.702l5.615,11.229l9.543-4.771l-9.475-22.109c-1.46-3.405-4.797-5.606-8.502-5.606h-5.302
		l-1.713-1.713c-1.281-1.281-2.984-1.987-4.796-1.987h-2.802c-1.812,0-3.515,0.705-4.797,1.987l-1.713,1.713h-5.302
		c-3.705,0-7.042,2.2-8.501,5.606l-9.475,22.109l9.543,4.771l5.615-11.229v5.702l-6.005,21.016
		c-0.429,1.502-0.135,3.079,0.805,4.326s2.376,1.962,3.938,1.962h34.587c1.562,0,2.997-0.715,3.938-1.962s1.234-2.824,0.805-4.326
		L85.34,71.399z M67.907,43.207h2.802c1.153,0,2.237,0.449,3.052,1.264l1.638,1.639l-2.647,2.647h-4.845
		c-1.318,0-2.557-0.513-3.488-1.445l-1.202-1.202l1.638-1.639C65.67,43.656,66.754,43.207,67.907,43.207z M50.045,95.256
		c-0.471-0.624-0.617-1.412-0.403-2.163l6.1-21.348V55.249l-9.184,18.369l-5.256-2.628l8.559-19.971
		c1.07-2.497,3.517-4.111,6.234-4.111h6.175l1.277,1.277c1.165,1.165,2.713,1.806,4.36,1.806h4.484v21.582l3.518,24.665H52.014
		C51.233,96.237,50.516,95.879,50.045,95.256z M88.57,95.256c-0.47,0.624-1.188,0.981-1.969,0.981h-9.447l-3.53-24.709V49.629
		l2.722-2.722h6.175c2.717,0,5.164,1.614,6.235,4.111l8.559,19.971l-5.256,2.628l-9.184-18.369v16.496l6.099,21.348
		C89.187,93.844,89.041,94.632,88.57,95.256z"/>
	<path fill="#FFFFFF" d="M68.437,55.904c-0.228,0.228-0.364,0.543-0.364,0.869c0,0.327,0.135,0.641,0.364,0.87
		c0.055,0.055,0.117,0.111,0.185,0.154c0.068,0.043,0.142,0.086,0.216,0.117c0.074,0.031,0.148,0.049,0.228,0.068
		c0.08,0.019,0.16,0.025,0.241,0.025c0.327,0,0.647-0.129,0.876-0.364c0.228-0.228,0.358-0.543,0.358-0.87
		c0-0.327-0.129-0.641-0.358-0.869C69.719,55.442,68.893,55.442,68.437,55.904z"/>
	<path fill="#FFFFFF" d="M68.437,59.598c-0.228,0.234-0.364,0.549-0.364,0.876c0,0.321,0.135,0.641,0.364,0.87
		c0.055,0.055,0.117,0.111,0.185,0.154c0.068,0.043,0.142,0.086,0.216,0.117c0.074,0.031,0.148,0.049,0.228,0.068
		c0.08,0.019,0.16,0.025,0.241,0.025c0.327,0,0.647-0.135,0.876-0.364c0.228-0.228,0.358-0.543,0.358-0.87
		c0-0.327-0.129-0.641-0.358-0.876C69.719,59.142,68.893,59.142,68.437,59.598z"/>
	<path fill="#FFFFFF" d="M69.066,62.965c-0.08,0.012-0.154,0.037-0.228,0.068c-0.074,0.031-0.148,0.068-0.216,0.117
		c-0.068,0.043-0.129,0.092-0.185,0.148c-0.228,0.234-0.364,0.549-0.364,0.876c0,0.321,0.135,0.641,0.364,0.87
		c0.228,0.234,0.549,0.364,0.87,0.364c0.327,0,0.641-0.129,0.876-0.364c0.055-0.055,0.105-0.117,0.154-0.185
		c0.043-0.068,0.08-0.142,0.111-0.216c0.031-0.074,0.056-0.148,0.068-0.228c0.018-0.08,0.025-0.16,0.025-0.241
		c0-0.327-0.129-0.641-0.358-0.876C69.898,63.014,69.473,62.885,69.066,62.965z"/>
</g>
<g>
	<path fill="#010101" d="M131.409,111.331c-2.724-0.219-5.271-1.19-7.452-2.839c-2.025-1.534-3.298-3.538-4.144-5.908
		c-1.68-4.729,0.324-10.03,2.254-14.341c-0.062,0.157-0.136,0.313-0.198,0.47c2.797-6.356,6.763-12.045,12.619-15.918
		c2.171-1.44,5.156-2.609,7.807-2.097c1.357,0.26,2.526,0.72,3.695,1.482c0.689,0.438,1.315,1.002,1.973,1.493
		c0.898,0.668,1.148,1.941,0.48,2.87c-0.658,0.918-1.942,1.116-2.86,0.48c-0.483-0.331-0.966-0.646-1.456-0.953
		c-0.259-0.155-0.519-0.3-0.789-0.425c0.084,0.042,0.177,0.074,0.261,0.115c-0.318-0.16-0.649-0.29-0.994-0.401
		c-0.174-0.034-0.347-0.074-0.521-0.109c-0.138-0.016-0.278-0.034-0.415-0.053c-0.149,0-0.301,0-0.447,0
		c-0.391,0.049-0.776,0.13-1.161,0.239c0.104-0.02,0.198-0.052,0.303-0.072c-0.23,0.07-0.46,0.149-0.681,0.219
		c-0.27,0.108-0.534,0.233-0.792,0.368c-0.317,0.179-0.627,0.371-0.932,0.576c-0.68,0.501-1.313,1.017-1.934,1.577
		c-0.63,0.631-1.22,1.271-1.784,1.946c-0.595,0.76-1.151,1.552-1.675,2.374c-0.629,1.082-1.198,2.181-1.721,3.316
		c-0.432,1.067-0.813,2.145-1.159,3.247c-0.416,1.473-0.727,2.942-0.987,4.446c-0.072,0.606-0.125,1.196-0.157,1.799
		c0.011,0.515,0.035,1.028,0.075,1.544c0.026,0.185,0.057,0.367,0.094,0.548c0.042,0.132,0.082,0.262,0.124,0.391
		c0.036,0.081,0.073,0.162,0.111,0.243c0.075,0.133,0.153,0.264,0.236,0.391c0.052,0.061,0.104,0.121,0.155,0.181
		c0.023,0.022,0.045,0.044,0.068,0.068c0.016,0.012,0.033,0.022,0.049,0.034c0.125,0.067,0.249,0.135,0.376,0.202
		c0.098,0.038,0.196,0.075,0.296,0.11c0.093,0.022,0.186,0.043,0.279,0.064c0.152,0.013,0.307,0.028,0.463,0.046
		c0.202-0.003,0.403-0.012,0.604-0.028c0.651-0.081,1.293-0.188,1.936-0.321c0.539-0.155,1.07-0.328,1.603-0.511
		c1.359-0.539,2.685-1.112,3.98-1.769c0.872-0.474,1.734-0.958,2.605-1.423c-0.077,0.04-0.154,0.08-0.231,0.12
		c1.541-0.838,3.022-1.762,4.465-2.75c4.568-3.337,8.904-7.043,13.299-10.599c2.348-1.9,5.824-1.785,8.037,0.282
		c2.317,2.181,2.672,6.336,0.261,8.621c-1.43,1.368-2.849,2.746-4.3,4.092c0.077-0.07,0.154-0.14,0.23-0.211
		c-1.408,1.327-2.823,2.638-4.238,3.958c0.209-0.198,0.417-0.396,0.626-0.594c-1.451,1.367-2.923,2.703-4.436,4.008
		c-2.317,2.004-4.833,3.695-7.515,5.177c-4.465,2.481-9.532,4.295-14.681,4.295C132.547,111.399,131.978,111.377,131.409,111.331z"
		/>
	<path fill="#010101" d="M257.843,50.391c-0.417-0.031-0.793-0.157-1.19-0.272c-2.87-0.877-2.881-5.135-0.24-6.272
		c1.566-0.668,3.183-1.117,4.812-1.598c1.68-0.491,3.361-0.992,5.041-1.482c2.672-0.793,5.323-1.628,7.985-2.442
		c6.21-1.886,12.44-3.66,18.76-5.156c-0.096,0.022-0.191,0.043-0.286,0.062c2.401-0.573,4.812-1.148,7.223-1.711
		c2.745-0.637,5.521,1.586,5.97,4.247c0.48,2.871-1.493,5.376-4.248,5.97c-7.223,1.534-14.456,2.965-21.689,4.416
		c-3.768,0.761-7.526,1.524-11.293,2.243c-2.96,0.578-5.974,0.968-8.929,1.577c-0.488,0.274-1.048,0.429-1.632,0.429
		C258.033,50.403,257.938,50.4,257.843,50.391z"/>
	<path fill="#010101" d="M179.717,92.982c0.234-0.006,0.469-0.016,0.703-0.033c0.291-0.04,0.581-0.085,0.872-0.136
		c0.42-0.117,0.833-0.244,1.246-0.38c0.547-0.236,1.086-0.481,1.621-0.74c0.535-0.314,1.059-0.64,1.58-0.978
		c1.096-0.813,2.161-1.666,3.186-2.567c0.958-0.947,1.872-1.943,2.747-2.966c0.726-0.961,1.401-1.952,2.048-2.968
		c0.478-0.849,0.919-1.708,1.331-2.587c0.392-0.967,0.763-1.937,1.098-2.93c0.222-0.827,0.411-1.658,0.569-2.502
		c0.075-0.704,0.134-1.401,0.178-2.104c-0.001-0.949-0.039-1.89-0.115-2.844c-0.138-0.953-0.305-1.896-0.498-2.836
		c-0.254-0.988-0.538-1.958-0.869-2.922c-0.293-0.695-0.6-1.372-0.934-2.044c-0.169-0.298-0.346-0.591-0.534-0.876
		c-0.19-0.247-0.387-0.487-0.592-0.72c-0.174-0.172-0.353-0.339-0.535-0.5c-0.484-0.371-0.979-0.723-1.485-1.063
		c-0.144-0.081-0.29-0.158-0.439-0.23c-0.009-0.003-0.018-0.007-0.028-0.01c-0.196,0.984-0.561,1.954-0.875,2.853
		c-0.511,1.461-1.044,2.911-1.566,4.373c-0.751,2.108-3.977,0.918-3.246-1.19c0.612-1.754,1.213-3.517,1.746-5.309
		c0.065-0.277,0.131-0.549,0.196-0.825c-0.772,0.079-1.544,0.162-2.315,0.252c-0.2,0.174-0.396,0.356-0.587,0.548
		c0.084-0.084,0.167-0.157,0.251-0.241c-0.375,0.375-0.729,0.772-1.069,1.177c-0.59,0.766-1.148,1.543-1.666,2.35
		c0.003-0.005,0.006-0.009,0.008-0.014c-0.728,1.241-1.379,2.508-1.988,3.816c-0.673,1.62-1.252,3.265-1.772,4.941
		c-0.538,1.917-0.952,3.841-1.288,5.795c-0.253,1.843-0.437,3.671-0.522,5.523c-0.025,1.446,0.008,2.885,0.113,4.341
		c0.133,1.099,0.32,2.189,0.556,3.277c0.097,0.347,0.202,0.69,0.317,1.03c0.11,0.256,0.227,0.511,0.352,0.763
		c0.132,0.234,0.271,0.463,0.418,0.69c0.031,0.038,0.061,0.077,0.092,0.115c0.096,0.087,0.192,0.176,0.288,0.264
		c0.008,0.006,0.017,0.013,0.026,0.019c0.068,0.037,0.137,0.074,0.206,0.11c0.148,0.053,0.295,0.106,0.443,0.159
		c0.131,0.033,0.262,0.062,0.394,0.091C179.493,92.964,179.605,92.974,179.717,92.982z M175.82,110.393
		c-3.779-1.075-7.045-3.361-9.446-6.461c-2.411-3.131-3.298-7.348-3.35-11.22c-0.042-3.715,0.773-7.556,1.785-11.105
		c1.159-4.092,2.724-8.048,4.624-11.846c1.722-3.445,3.736-6.68,6.106-9.718c0.58-0.741,1.192-1.456,1.838-2.134
		c-0.678-0.53-1.203-1.259-1.462-2.114c-0.595-1.973,0.365-4.373,2.338-5.156c1.566-0.626,3.142-1.231,4.718-1.806
		c2.933-1.054,5.824-2.066,8.966-2.243c3.309-0.177,6.774,1.169,9.53,2.88c3.476,2.161,6.075,5.439,7.964,9.018
		c1.91,3.622,3.173,7.474,3.914,11.492c0.804,4.425,0.522,8.892-0.334,13.287c-1.66,8.517-6.732,15.979-13.475,21.302
		c-5.012,3.953-11.382,6.64-17.789,6.64C179.761,111.208,177.773,110.95,175.82,110.393z"/>
	<path fill="#010101" d="M229.206,86.176c0.068-0.003,0.137-0.005,0.205-0.007c0.101-0.015,0.201-0.033,0.301-0.052
		c0.141-0.04,0.282-0.08,0.426-0.117c0.187-0.077,0.371-0.158,0.553-0.245c0.535-0.303,1.051-0.619,1.564-0.958
		c0.485-0.384,0.951-0.78,1.409-1.195c0.716-0.714,1.402-1.446,2.071-2.201c1.399-1.755,2.674-3.596,3.86-5.493
		c1.333-2.267,2.524-4.592,3.591-6.994c1.091-2.56,1.999-5.202,3.028-7.793c0.365-1.259,0.794-2.496,1.3-3.694
		c-0.048-0.122-0.096-0.245-0.145-0.368c0.042,0.083,0.084,0.157,0.125,0.23c-0.209-0.449-0.459-0.866-0.752-1.264
		c0.052,0.074,0.094,0.146,0.146,0.22c-0.112-0.136-0.23-0.264-0.345-0.393c-0.247-0.202-0.508-0.386-0.792-0.547
		c0.083,0.052,0.167,0.105,0.25,0.157c-0.156-0.081-0.311-0.157-0.467-0.236c-0.105-0.038-0.211-0.076-0.319-0.112
		c-0.17-0.033-0.342-0.065-0.516-0.098c-0.208-0.014-0.411-0.028-0.614-0.038c-0.21,0.008-0.416,0.018-0.621,0.031
		c-0.205,0.027-0.408,0.057-0.616,0.089c0.071-0.022,0.138-0.038,0.206-0.053c-0.434,0.091-0.857,0.207-1.272,0.356
		c-0.552,0.219-1.084,0.469-1.605,0.74c0.105-0.052,0.198-0.104,0.292-0.146c-0.611,0.347-1.197,0.709-1.774,1.107
		c-0.543,0.425-1.07,0.858-1.581,1.315c-0.9,0.862-1.727,1.752-2.525,2.705c-0.66,0.851-1.275,1.722-1.872,2.629
		c-0.854,1.447-1.613,2.929-2.299,4.467c0.073-0.156,0.136-0.302,0.209-0.459c-0.527,1.247-0.98,2.52-1.381,3.808
		c0.001-0.003,0.002-0.006,0.003-0.01c-0.461,1.66-0.841,3.33-1.131,5.028c-0.148,1.105-0.252,2.205-0.297,3.324
		c0.006,0.813,0.038,1.618,0.105,2.425c0.091,0.593,0.189,1.17,0.31,1.756c0.064,0.236,0.134,0.47,0.213,0.703
		c0.137,0.331,0.284,0.658,0.441,0.979c0.048,0.082,0.098,0.162,0.149,0.242c0.026,0.029,0.052,0.058,0.079,0.087
		C229.148,86.124,229.177,86.15,229.206,86.176z M267.378,101.042c-1.378-0.095-2.756-0.198-4.123-0.376
		c-2.693-0.334-5.25-1.107-7.577-2.505c-4.342-2.589-7.546-6.764-9.425-11.43c-0.045-0.112-0.088-0.225-0.131-0.337
		c-1.58,2.325-3.333,4.514-5.432,6.412c-2.411,2.202-5.417,4.175-8.684,4.78c-2.943,0.543-5.866,0.313-8.465-1.262
		c-1.325-0.804-2.474-1.816-3.371-3.09c-0.897-1.273-1.472-2.662-1.952-4.133c-0.449-1.389-0.543-2.933-0.605-4.374
		c-0.063-1.482,0.073-2.985,0.303-4.435c0.501-3.247,1.493-6.315,2.714-9.352c2.463-6.137,6.304-11.721,11.46-15.896
		c2.15-1.754,4.509-3.069,7.118-3.998c2.401-0.867,4.937-0.825,7.348-0.074c1.733,0.543,3.392,2.161,4.102,3.8
		c0.002,0.006,0.005,0.01,0.007,0.016c1.362-0.187,2.666,0.363,3.552,1.392c0.72,0.825,1.148,1.67,1.232,2.777
		c0.125,1.503-0.104,2.933-0.344,4.414c-0.24,1.451-0.574,2.881-0.877,4.311c-0.046,0.22-0.096,0.44-0.147,0.661
		c0.004,0.059,0.009,0.117,0.014,0.177c0.141,1.212,0.331,2.417,0.57,3.614c0.274,1.091,0.581,2.165,0.942,3.238
		c0.363,0.922,0.763,1.818,1.204,2.7c0.349,0.611,0.718,1.206,1.109,1.789c0.376,0.484,0.76,0.947,1.165,1.408
		c0.413,0.416,0.842,0.813,1.287,1.202c0.56,0.44,1.128,0.861,1.719,1.259c0.789,0.457,1.586,0.881,2.408,1.273
		c1.797,0.668,3.633,1.23,5.459,1.802c-0.035-0.01-0.07-0.021-0.105-0.031c1.493,0.455,2.802,1.185,3.81,2.431
		c1.19,1.462,1.774,3.371,1.607,5.24c-0.339,3.825-3.626,6.615-7.356,6.615C267.735,101.061,267.558,101.055,267.378,101.042z"/>
	<path fill="#010101" d="M266.733,97.647c-1.305-1.973-2.265-3.998-3.09-6.21c-0.762-2.046-1.138-4.28-1.419-6.43
		c-0.658-5.052,0.104-10.291,1.064-15.259c0.47-2.443,1.159-4.843,1.827-7.233c0.626-2.266,1.2-4.53,1.868-6.784
		c0.919-3.121,1.952-6.21,2.964-9.311c1.42-4.342,2.839-8.684,4.259-13.026c2.129-6.534,4.29-13.057,6.304-19.622
		c0.407-1.348,0.815-2.686,1.23-4.033c-0.003,0.008-0.006,0.016-0.009,0.025c0.637-2.251,1.303-4.5,1.683-6.82
		c-0.128-0.489-0.083-1.037,0.217-1.593c0.407-0.751,1.033-1.127,1.858-1.304c1.555-0.324,2.829,1.085,2.756,2.557
		c-0.177,3.715-1.054,7.338-1.806,10.97c-0.511,2.526-1.033,5.041-1.545,7.557c-0.932,4.532-1.73,9.098-2.618,13.641
		c-0.554,3.686-1.108,7.38-1.661,11.064c-0.892,5.993-1.465,12.015-1.657,18.065c0.039,2.618,0.114,5.219,0.332,7.818
		c0.17,1.365,0.387,2.71,0.658,4.06c0.272,1.072,0.578,2.128,0.932,3.178c0.343,0.853,0.704,1.69,1.102,2.517
		c0.427,0.716,0.882,1.404,1.355,2.086c0.168,0.215,0.34,0.425,0.518,0.632c0.573,0.556,1.158,1.091,1.749,1.623
		c0.291,0.216,0.586,0.423,0.886,0.622c0.295,0.183,0.59,0.365,0.885,0.547c0.243,0.142,0.489,0.275,0.738,0.402
		c0.311,0.12,0.627,0.234,0.944,0.34c0.006,0.001,0.012,0.003,0.018,0.005c0.075,0.007,0.15,0.015,0.224,0.022
		c0.119-0.018,0.238-0.037,0.356-0.056c0.127-0.037,0.254-0.076,0.38-0.117c0.209-0.09,0.417-0.185,0.622-0.285
		c0.314-0.179,0.625-0.367,0.932-0.565c0.999-0.779,1.942-1.611,2.872-2.458c0.62-0.616,1.218-1.244,1.802-1.897
		c0.486-0.684,0.954-1.378,1.41-2.086c2.626-4.363,4.963-8.895,7.397-13.359c1.513-2.776,4.833-4.133,7.839-3.037
		c3.34,1.221,4.895,4.874,3.809,8.173c-1.764,5.354-3.465,10.739-5.417,16.032c-1.545,4.206-3.653,8.255-6.44,11.783
		c-3.183,4.018-7.338,6.931-12.253,8.403c-1.803,0.543-3.646,0.797-5.484,0.797C279.081,109.081,271.116,104.232,266.733,97.647z"/>
</g>
<g>
</g>
<g>
</g>
<g>
</g>
<g>
</g>
<g>
</g>
<g>
</g>
</svg>
