<?xml version="1.0" encoding="iso-8859-1"?>
<!-- Generator: Adobe Illustrator 24.2.1, SVG Export Plug-In . SVG Version: 6.00 Build 0)  -->
<svg version="1.1" id="Layer_1" xmlns="http://www.w3.org/2000/svg" xmlns:xlink="http://www.w3.org/1999/xlink" x="0px" y="0px"
	 width="249.79px" height="138.549px" viewBox="0 0 249.79 138.549" enable-background="new 0 0 249.79 138.549"
	 xml:space="preserve">
<g>
	<path fill="#010101" d="M30.038,121.813c-2.981-0.24-5.767-1.302-8.154-3.106c-2.216-1.679-3.609-3.871-4.534-6.464
		c-1.839-5.174,0.354-10.975,2.467-15.691c-0.068,0.171-0.148,0.343-0.217,0.514c3.061-6.955,7.4-13.18,13.807-17.416
		c2.375-1.575,5.642-2.854,8.542-2.295c1.485,0.285,2.764,0.788,4.043,1.622c0.754,0.479,1.439,1.096,2.158,1.633
		c0.982,0.731,1.256,2.123,0.526,3.141c-0.72,1.004-2.124,1.221-3.129,0.525c-0.528-0.362-1.057-0.707-1.593-1.043
		c-0.284-0.17-0.567-0.328-0.863-0.465c0.092,0.046,0.194,0.081,0.286,0.126c-0.348-0.175-0.711-0.318-1.087-0.439
		c-0.19-0.037-0.38-0.081-0.57-0.119c-0.151-0.018-0.304-0.037-0.454-0.059c-0.163,0-0.329,0-0.489,0
		c-0.427,0.054-0.849,0.143-1.271,0.262c0.114-0.022,0.217-0.056,0.331-0.079c-0.252,0.076-0.503,0.163-0.745,0.24
		c-0.296,0.118-0.584,0.255-0.867,0.403c-0.347,0.196-0.686,0.406-1.019,0.63c-0.744,0.548-1.437,1.113-2.116,1.726
		c-0.689,0.69-1.335,1.39-1.952,2.129c-0.651,0.832-1.259,1.698-1.833,2.597c-0.688,1.183-1.311,2.386-1.883,3.628
		c-0.473,1.168-0.89,2.347-1.268,3.553c-0.455,1.612-0.795,3.219-1.08,4.865c-0.079,0.663-0.136,1.308-0.171,1.969
		c0.012,0.564,0.039,1.125,0.082,1.689c0.029,0.202,0.063,0.401,0.103,0.6c0.046,0.144,0.09,0.286,0.135,0.428
		c0.039,0.089,0.08,0.178,0.122,0.266c0.082,0.146,0.168,0.288,0.259,0.428c0.057,0.067,0.114,0.132,0.17,0.198
		c0.025,0.024,0.05,0.049,0.074,0.074c0.017,0.013,0.036,0.024,0.053,0.037c0.137,0.074,0.272,0.148,0.411,0.221
		c0.107,0.041,0.215,0.082,0.323,0.121c0.102,0.024,0.203,0.047,0.305,0.07c0.166,0.014,0.336,0.031,0.506,0.05
		c0.221-0.004,0.441-0.013,0.661-0.031c0.713-0.089,1.415-0.206,2.118-0.351c0.59-0.169,1.171-0.359,1.754-0.559
		c1.487-0.59,2.937-1.216,4.355-1.936c0.954-0.519,1.898-1.048,2.85-1.557c-0.084,0.044-0.168,0.087-0.252,0.131
		c1.687-0.917,3.306-1.928,4.886-3.009c4.999-3.652,9.743-7.706,14.551-11.597c2.569-2.078,6.372-1.954,8.793,0.308
		c2.535,2.387,2.924,6.932,0.286,9.432c-1.565,1.497-3.118,3.004-4.705,4.477c0.084-0.076,0.168-0.153,0.252-0.231
		c-1.54,1.452-3.088,2.886-4.637,4.33c0.228-0.217,0.457-0.433,0.685-0.65c-1.587,1.496-3.198,2.958-4.854,4.385
		c-2.535,2.193-5.288,4.043-8.223,5.664c-4.886,2.715-10.429,4.699-16.064,4.699C31.283,121.888,30.66,121.863,30.038,121.813z"/>
	<path fill="#010101" d="M168.376,55.136c-0.457-0.034-0.868-0.172-1.302-0.298c-3.14-0.959-3.152-5.618-0.263-6.863
		c1.713-0.731,3.483-1.223,5.265-1.748c1.839-0.537,3.677-1.085,5.516-1.622c2.924-0.867,5.824-1.781,8.736-2.672
		c6.795-2.063,13.612-4.005,20.526-5.642c-0.105,0.024-0.209,0.047-0.313,0.068c2.627-0.627,5.265-1.256,7.903-1.872
		c3.004-0.697,6.041,1.736,6.532,4.647c0.525,3.141-1.633,5.882-4.648,6.532c-7.903,1.679-15.817,3.244-23.731,4.831
		c-4.123,0.833-8.234,1.667-12.357,2.455c-3.238,0.632-6.537,1.059-9.769,1.725c-0.534,0.3-1.146,0.47-1.786,0.47
		C168.584,55.149,168.48,55.145,168.376,55.136z"/>
	<path fill="#010101" d="M82.894,101.736c0.256-0.006,0.513-0.018,0.769-0.036c0.318-0.044,0.636-0.094,0.955-0.148
		c0.459-0.128,0.911-0.267,1.363-0.416c0.599-0.258,1.189-0.527,1.774-0.81c0.586-0.344,1.159-0.7,1.729-1.07
		c1.199-0.889,2.364-1.823,3.486-2.809c1.048-1.036,2.048-2.126,3.006-3.245c0.795-1.051,1.533-2.136,2.241-3.248
		c0.523-0.929,1.006-1.869,1.457-2.831c0.429-1.058,0.835-2.12,1.202-3.205c0.243-0.905,0.45-1.814,0.622-2.737
		c0.082-0.77,0.147-1.533,0.195-2.303c-0.001-1.038-0.042-2.068-0.125-3.111c-0.151-1.043-0.334-2.074-0.545-3.103
		c-0.278-1.081-0.588-2.142-0.951-3.198c-0.321-0.76-0.656-1.501-1.022-2.237c-0.185-0.326-0.379-0.647-0.585-0.959
		c-0.208-0.271-0.424-0.532-0.648-0.787c-0.191-0.188-0.386-0.37-0.585-0.547c-0.53-0.406-1.071-0.791-1.624-1.163
		c-0.158-0.089-0.317-0.173-0.48-0.252c-0.01-0.004-0.02-0.007-0.03-0.011c-0.215,1.077-0.614,2.138-0.957,3.122
		c-0.56,1.598-1.142,3.186-1.713,4.785c-0.822,2.306-4.351,1.004-3.552-1.302c0.669-1.919,1.327-3.849,1.91-5.809
		c0.072-0.303,0.143-0.601,0.215-0.902c-0.844,0.086-1.689,0.177-2.533,0.276c-0.219,0.191-0.433,0.39-0.643,0.6
		c0.092-0.092,0.183-0.171,0.274-0.263c-0.411,0.41-0.798,0.844-1.169,1.288c-0.645,0.838-1.257,1.689-1.823,2.572
		c0.003-0.005,0.006-0.01,0.009-0.015c-0.796,1.358-1.509,2.744-2.175,4.175c-0.736,1.773-1.37,3.572-1.939,5.406
		c-0.588,2.097-1.042,4.203-1.409,6.34c-0.277,2.016-0.478,4.017-0.571,6.043c-0.027,1.582,0.009,3.157,0.123,4.749
		c0.146,1.203,0.35,2.395,0.608,3.585c0.106,0.38,0.221,0.755,0.347,1.127c0.12,0.28,0.248,0.559,0.385,0.834
		c0.145,0.256,0.296,0.506,0.458,0.754c0.033,0.042,0.066,0.084,0.1,0.126c0.105,0.096,0.21,0.193,0.315,0.288
		c0.009,0.006,0.019,0.014,0.028,0.021c0.075,0.041,0.15,0.081,0.226,0.12c0.161,0.058,0.323,0.116,0.485,0.174
		c0.143,0.036,0.287,0.068,0.431,0.099C82.649,101.717,82.771,101.728,82.894,101.736z M78.631,120.786
		c-4.134-1.176-7.709-3.677-10.335-7.07c-2.638-3.425-3.609-8.04-3.666-12.277c-0.046-4.065,0.845-8.267,1.953-12.15
		c1.268-4.477,2.981-8.806,5.059-12.962c1.884-3.769,4.088-7.309,6.681-10.633c0.635-0.811,1.304-1.593,2.011-2.335
		c-0.741-0.58-1.316-1.378-1.6-2.313c-0.651-2.158,0.4-4.784,2.558-5.642c1.713-0.685,3.437-1.347,5.162-1.976
		c3.209-1.153,6.372-2.26,9.81-2.455c3.62-0.194,7.412,1.279,10.427,3.151c3.803,2.364,6.647,5.951,8.713,9.867
		c2.09,3.964,3.472,8.178,4.283,12.574c0.879,4.842,0.571,9.729-0.365,14.538c-1.816,9.319-7.366,17.484-14.743,23.308
		c-5.484,4.325-12.454,7.265-19.464,7.265C82.942,121.679,80.767,121.396,78.631,120.786z"/>
	<path fill="#010101" d="M137.042,94.29c0.075-0.003,0.15-0.005,0.224-0.008c0.11-0.016,0.22-0.036,0.33-0.057
		c0.154-0.044,0.309-0.087,0.466-0.128c0.204-0.084,0.406-0.173,0.605-0.268c0.585-0.331,1.15-0.677,1.712-1.048
		c0.531-0.42,1.04-0.854,1.541-1.308c0.784-0.782,1.534-1.582,2.266-2.408c1.531-1.921,2.926-3.934,4.223-6.011
		c1.458-2.48,2.762-5.024,3.929-7.653c1.194-2.801,2.188-5.692,3.313-8.527c0.399-1.378,0.869-2.731,1.423-4.041
		c-0.053-0.133-0.105-0.268-0.158-0.403c0.046,0.091,0.092,0.171,0.137,0.251c-0.228-0.492-0.503-0.948-0.822-1.383
		c0.057,0.081,0.103,0.16,0.16,0.241c-0.123-0.148-0.252-0.289-0.378-0.43c-0.271-0.221-0.556-0.423-0.867-0.599
		c0.091,0.057,0.183,0.115,0.274,0.171c-0.17-0.089-0.34-0.171-0.511-0.258c-0.115-0.042-0.231-0.083-0.349-0.123
		c-0.186-0.036-0.374-0.071-0.564-0.107c-0.228-0.016-0.45-0.031-0.672-0.042c-0.23,0.009-0.455,0.019-0.679,0.034
		c-0.225,0.029-0.446,0.063-0.674,0.097c0.078-0.024,0.151-0.042,0.225-0.059c-0.475,0.099-0.937,0.226-1.392,0.39
		c-0.604,0.24-1.186,0.513-1.757,0.81c0.114-0.056,0.217-0.114,0.32-0.16c-0.668,0.38-1.31,0.776-1.941,1.211
		c-0.595,0.465-1.171,0.939-1.73,1.439c-0.985,0.943-1.889,1.916-2.763,2.959c-0.722,0.931-1.395,1.884-2.048,2.876
		c-0.935,1.583-1.765,3.205-2.516,4.887c0.08-0.171,0.148-0.33,0.228-0.502c-0.576,1.365-1.072,2.757-1.511,4.167
		c0.001-0.003,0.002-0.006,0.004-0.011c-0.504,1.816-0.92,3.643-1.237,5.501c-0.162,1.209-0.276,2.413-0.325,3.637
		c0.007,0.889,0.042,1.771,0.115,2.653c0.099,0.649,0.207,1.28,0.339,1.921c0.07,0.258,0.147,0.514,0.233,0.769
		c0.15,0.363,0.31,0.719,0.482,1.071c0.053,0.089,0.107,0.178,0.163,0.265c0.028,0.031,0.057,0.064,0.086,0.096
		C136.979,94.233,137.011,94.262,137.042,94.29z M178.809,110.555c-1.507-0.104-3.015-0.217-4.511-0.411
		c-2.946-0.365-5.744-1.211-8.291-2.741c-4.751-2.833-8.257-7.401-10.312-12.506c-0.049-0.123-0.096-0.246-0.144-0.369
		c-1.729,2.544-3.647,4.938-5.943,7.016c-2.638,2.41-5.927,4.568-9.502,5.23c-3.22,0.595-6.418,0.343-9.262-1.381
		c-1.45-0.879-2.706-1.987-3.689-3.381c-0.982-1.393-1.61-2.912-2.135-4.522c-0.491-1.52-0.594-3.209-0.662-4.786
		c-0.069-1.622,0.08-3.266,0.331-4.853c0.548-3.552,1.633-6.909,2.969-10.232c2.695-6.715,6.898-12.825,12.539-17.393
		c2.353-1.919,4.934-3.358,7.788-4.374c2.627-0.949,5.402-0.902,8.04-0.081c1.896,0.594,3.712,2.364,4.488,4.158
		c0.002,0.006,0.005,0.011,0.008,0.018c1.49-0.204,2.917,0.398,3.886,1.523c0.788,0.902,1.256,1.827,1.348,3.038
		c0.137,1.645-0.114,3.209-0.377,4.83c-0.263,1.587-0.628,3.153-0.959,4.717c-0.051,0.241-0.105,0.482-0.16,0.723
		c0.005,0.064,0.01,0.128,0.015,0.193c0.154,1.326,0.362,2.644,0.624,3.954c0.3,1.193,0.636,2.369,1.031,3.542
		c0.397,1.009,0.834,1.989,1.317,2.954c0.382,0.668,0.785,1.32,1.213,1.957c0.411,0.53,0.831,1.036,1.274,1.54
		c0.452,0.455,0.921,0.89,1.408,1.315c0.613,0.481,1.234,0.942,1.881,1.378c0.863,0.5,1.736,0.964,2.634,1.393
		c1.966,0.731,3.975,1.345,5.973,1.971c-0.038-0.011-0.076-0.023-0.115-0.034c1.634,0.498,3.066,1.297,4.169,2.66
		c1.302,1.6,1.941,3.689,1.759,5.734c-0.37,4.185-3.968,7.238-8.049,7.238C179.2,110.576,179.005,110.57,178.809,110.555z"/>
	<path fill="#010101" d="M178.103,106.841c-1.428-2.159-2.478-4.375-3.381-6.795c-0.833-2.238-1.245-4.683-1.553-7.036
		c-0.72-5.527,0.114-11.26,1.165-16.696c0.514-2.673,1.268-5.299,1.999-7.914c0.685-2.479,1.313-4.956,2.044-7.423
		c1.005-3.415,2.136-6.795,3.243-10.187c1.553-4.751,3.106-9.502,4.66-14.252c2.33-7.149,4.693-14.287,6.898-21.469
		c0.446-1.475,0.891-2.939,1.346-4.412c-0.003,0.009-0.006,0.018-0.01,0.027c0.697-2.462,1.426-4.924,1.841-7.462
		c-0.14-0.535-0.091-1.135,0.237-1.743c0.446-0.822,1.131-1.233,2.033-1.427c1.702-0.354,3.095,1.187,3.015,2.798
		c-0.194,4.065-1.154,8.028-1.976,12.003c-0.56,2.764-1.131,5.516-1.69,8.268c-1.019,4.959-1.893,9.954-2.865,14.925
		c-0.606,4.033-1.212,8.075-1.818,12.106c-0.976,6.557-1.603,13.146-1.813,19.766c0.042,2.864,0.125,5.71,0.364,8.554
		c0.186,1.494,0.424,2.966,0.72,4.442c0.297,1.173,0.633,2.328,1.019,3.477c0.375,0.933,0.77,1.849,1.206,2.754
		c0.467,0.783,0.965,1.536,1.483,2.282c0.184,0.236,0.372,0.465,0.566,0.692c0.627,0.608,1.267,1.193,1.913,1.776
		c0.318,0.236,0.641,0.463,0.969,0.681c0.323,0.2,0.646,0.399,0.968,0.598c0.266,0.155,0.535,0.3,0.808,0.44
		c0.341,0.131,0.686,0.256,1.032,0.372c0.007,0.001,0.013,0.004,0.02,0.005c0.082,0.008,0.164,0.016,0.245,0.024
		c0.131-0.02,0.261-0.041,0.39-0.061c0.139-0.041,0.278-0.083,0.416-0.128c0.229-0.099,0.456-0.203,0.681-0.312
		c0.344-0.196,0.684-0.401,1.02-0.618c1.093-0.852,2.124-1.762,3.142-2.689c0.678-0.674,1.333-1.361,1.971-2.076
		c0.531-0.749,1.044-1.507,1.543-2.282c2.873-4.774,5.43-9.733,8.093-14.616c1.656-3.038,5.288-4.522,8.577-3.323
		c3.654,1.335,5.356,5.332,4.168,8.942c-1.93,5.859-3.791,11.751-5.927,17.541c-1.69,4.602-3.997,9.033-7.046,12.893
		c-3.483,4.397-8.028,7.584-13.407,9.194c-1.973,0.594-3.99,0.872-6,0.872C191.614,119.351,182.899,114.046,178.103,106.841z"/>
</g>
</svg>
